<svg width="239" height="52" viewBox="0 0 239 52" fill="none" xmlns="http://www.w3.org/2000/svg">
<g clip-path="url(#clip0_138_79884)">
<path d="M39.153 15.8734H33.3369C32.7181 15.8734 32.2164 16.3752 32.2164 16.9939V22.5659C32.2164 22.7253 32.2503 22.8778 32.3113 23.0151L29.8347 25.4918C29.8008 25.4884 29.7669 25.4867 29.733 25.4867H23.9169C23.8881 25.4867 23.8609 25.4884 23.8321 25.4918L21.3453 23.005C21.403 22.8711 21.4335 22.7236 21.4335 22.5676V16.9956C21.4335 16.3769 20.9317 15.8751 20.313 15.8751H14.4969C13.8782 15.8751 13.3764 16.3769 13.3764 16.9956V22.5676C13.3764 22.727 13.4103 22.8795 13.4713 23.0168L10.9947 25.4935C10.9608 25.4901 10.9269 25.4884 10.893 25.4884H5.07692C4.45819 25.4884 3.95642 25.9901 3.95642 26.6089V32.1808C3.95642 32.7996 4.45819 33.3013 5.07692 33.3013H10.893C11.5117 33.3013 12.0135 32.7996 12.0135 32.1808V26.6089C12.0135 26.436 11.9728 26.2715 11.9016 26.1257L14.3494 23.6779C14.3986 23.6847 14.4477 23.6881 14.4969 23.6881H20.313C20.3689 23.6881 20.4232 23.683 20.4757 23.6746L22.9134 26.1122C22.8388 26.2614 22.7964 26.4292 22.7964 26.6089V32.1808C22.7964 32.7996 23.2982 33.3013 23.9169 33.3013H29.733C30.3517 33.3013 30.8535 32.7996 30.8535 32.1808V26.6089C30.8535 26.436 30.8128 26.2715 30.7416 26.1257L33.1894 23.6779C33.2386 23.6847 33.2877 23.6881 33.3369 23.6881H39.153C39.7717 23.6881 40.2735 23.1863 40.2735 22.5676V16.9956C40.2735 16.3752 39.7717 15.8734 39.153 15.8734Z" fill="url(#paint0_linear_138_79884)"/>
<path d="M18.6145 25.6087H14.6749C14.4885 25.6087 14.3376 25.7596 14.3376 25.9461V29.8856C14.3376 30.0721 14.4885 30.2229 14.6749 30.2229H18.6145C18.8009 30.2229 18.9518 30.0721 18.9518 29.8856V25.9461C18.9518 25.7596 18.8009 25.6087 18.6145 25.6087Z" fill="#106196"/>
<path d="M14.8817 32.3368C14.7936 32.3368 14.7241 32.408 14.7241 32.4945V33.3319C14.7241 33.42 14.7953 33.4895 14.8817 33.4895H15.7191C15.8073 33.4895 15.8768 33.4183 15.8768 33.3319V32.4945C15.8768 32.4063 15.8056 32.3368 15.7191 32.3368H14.8817Z" fill="#106196"/>
<path d="M11.2625 15.314V15.909C11.2625 16.0633 11.388 16.1887 11.5422 16.1887H12.1728C12.3271 16.1887 12.4525 16.0633 12.4525 15.909V15.314C12.4525 15.1598 12.3271 15.0343 12.1728 15.0343H11.5422C11.3863 15.0343 11.2625 15.1598 11.2625 15.314Z" fill="#106196"/>
<path d="M16.9786 7.77229H12.3186C11.866 7.77229 11.4999 8.13845 11.4999 8.59105V13.0612C11.4999 13.5138 11.866 13.8799 12.3186 13.8799H16.9786C17.4312 13.8799 17.7974 13.5138 17.7974 13.0612V8.59105C17.7991 8.14014 17.4312 7.77229 16.9786 7.77229Z" fill="#106196"/>
<path d="M18.567 32.4826V34.115C18.567 34.3015 18.7179 34.4524 18.9044 34.4524H20.5368C20.7233 34.4524 20.8741 34.3015 20.8741 34.115V32.4826C20.8741 32.2961 20.7233 32.1453 20.5368 32.1453H18.9044C18.7179 32.1453 18.567 32.2961 18.567 32.4826Z" fill="#106196"/>
<path d="M5.45833 21.1861H9.18259C9.69283 21.1861 10.1081 20.7725 10.1081 20.2605V16.343C10.1081 15.8328 9.69453 15.4174 9.18259 15.4174H5.45833C4.94809 15.4174 4.53278 15.8311 4.53278 16.343V20.2605C4.53278 20.7725 4.94809 21.1861 5.45833 21.1861Z" fill="#106196"/>
<path d="M9.52336 14.2647C9.67762 14.2647 9.80307 14.1393 9.80307 13.985V12.0441C9.80307 11.8898 9.67762 11.7644 9.52336 11.7644H7.50443C7.35017 11.7644 7.22473 11.8898 7.22473 12.0441V13.985C7.22473 14.1393 7.35017 14.2647 7.50443 14.2647H9.52336Z" fill="#106196"/>
<path d="M19.913 38.6479V39.4853C19.913 39.5734 19.9842 39.6429 20.0706 39.6429H20.908C20.9962 39.6429 21.0657 39.5717 21.0657 39.4853V38.6479C21.0657 38.5597 20.9945 38.4902 20.908 38.4902H20.0706C19.9842 38.4885 19.913 38.5597 19.913 38.6479Z" fill="#106196"/>
<path d="M20.6385 12.139H19.5722C19.4417 12.139 19.3366 12.2441 19.3366 12.3746V13.3951C19.3366 13.5257 19.4417 13.6308 19.5722 13.6308H20.6385C20.769 13.6308 20.8741 13.5257 20.8741 13.3951V12.3746C20.8741 12.2441 20.769 12.139 20.6385 12.139Z" fill="#106196"/>
<path d="M24.4831 11.3355C24.6136 11.3355 24.7187 11.2304 24.7187 11.0999V10.4523C24.7187 10.3218 24.6136 10.2167 24.4831 10.2167H23.8016C23.6711 10.2167 23.566 10.3218 23.566 10.4523V11.0999C23.566 11.2304 23.6711 11.3355 23.8016 11.3355H24.4831Z" fill="#106196"/>
<path d="M29.4821 17.4923C29.6126 17.4923 29.7177 17.3872 29.7177 17.2567V16.6091C29.7177 16.4786 29.6126 16.3735 29.4821 16.3735H28.8006C28.6701 16.3735 28.565 16.4786 28.565 16.6091V17.2567C28.565 17.3872 28.6701 17.4923 28.8006 17.4923H29.4821Z" fill="#106196"/>
<path d="M25.4883 20.3402V23.4305C25.4883 23.8119 25.7985 24.1221 26.1799 24.1221H29.4109C29.7923 24.1221 30.1025 23.8119 30.1025 23.4305V20.3402C30.1025 19.9588 29.7923 19.6486 29.4109 19.6486H26.1799C25.7985 19.6486 25.4883 19.9588 25.4883 20.3402Z" fill="#106196"/>
<path d="M23.566 37.5748C23.566 37.7613 23.7168 37.9122 23.9033 37.9122H24.7678C24.9543 37.9122 25.1052 37.7613 25.1052 37.5748V36.5188C25.1052 36.3323 24.9543 36.1814 24.7678 36.1814H23.9033C23.7168 36.1814 23.566 36.3323 23.566 36.5188V37.5748Z" fill="#106196"/>
<path d="M3.08176 24.3797H4.83117C4.98542 24.3797 5.11087 24.2543 5.11087 24.1V22.4218C5.11087 22.2676 4.98542 22.1421 4.83117 22.1421H3.08176C2.9275 22.1421 2.80206 22.2676 2.80206 22.4218V24.1C2.80376 24.2543 2.9275 24.3797 3.08176 24.3797Z" fill="#106196"/>
<path d="M10.3454 22.1472C10.1912 22.1472 10.0657 22.2727 10.0657 22.4269V23.2152C10.0657 23.3694 10.1912 23.4949 10.3454 23.4949H11.1744C11.3286 23.4949 11.4541 23.3694 11.4541 23.2152V22.4269C11.4541 22.2727 11.3286 22.1472 11.1744 22.1472H10.3454Z" fill="#106196"/>
<path d="M22.3929 3.19708C16.3175 3.19708 10.8218 5.6771 6.86022 9.67767C10.0454 6.9349 14.1884 5.27195 18.7229 5.27195C19.0891 5.27195 19.4518 5.28382 19.8112 5.30586H19.2315C19.0772 5.30586 18.9518 5.4313 18.9518 5.58556V7.45023C18.9518 7.60449 19.0772 7.72993 19.2315 7.72993H21.1724C21.3267 7.72993 21.4521 7.60449 21.4521 7.45023V5.58556C21.4521 5.54487 21.4437 5.50758 21.4284 5.47368C22.2234 5.59234 23.0015 5.76185 23.7592 5.98053V6.87557C23.7592 7.02983 23.8847 7.15527 24.0389 7.15527H25.0187C25.173 7.15527 25.2984 7.02983 25.2984 6.87557V6.49925C26.1799 6.84167 27.0292 7.2502 27.8395 7.71976H26.6512C26.3291 7.71976 26.068 7.98082 26.068 8.3029V13.1036C26.068 13.4257 26.3291 13.6867 26.6512 13.6867H31.6383C31.9604 13.6867 32.2215 13.4257 32.2215 13.1036V11.2677C33.1996 12.3492 34.0471 13.5511 34.7455 14.8462H39.6005C40.4091 14.8462 41.0651 15.5022 41.0651 16.3108V23.1864C41.0651 23.995 40.4091 24.651 39.6005 24.651H36.8797C36.7899 26.0444 36.5458 27.3971 36.1593 28.6889H35.0286C34.6472 28.6889 34.337 28.9991 34.337 29.3805V32.8199C33.9844 33.4082 33.5979 33.9743 33.1843 34.5168V33.8455C33.1843 33.7574 33.1131 33.6879 33.0267 33.6879H32.1893C32.1011 33.6879 32.0316 33.7591 32.0316 33.8455V34.6829C32.0316 34.7711 32.1028 34.8406 32.1893 34.8406H32.93C32.6113 35.2389 32.2757 35.6237 31.9248 35.9933H27.3343C26.9529 35.9933 26.6427 36.3035 26.6427 36.6849V39.8532C24.2491 41.0126 21.5623 41.6636 18.7229 41.6636C18.6704 41.6636 18.6195 41.6619 18.567 41.6619C18.567 41.6568 18.5687 41.6517 18.5687 41.6466V36.8781C18.5687 36.4967 18.2585 36.1865 17.877 36.1865H12.917C12.5356 36.1865 12.2254 36.4967 12.2254 36.8781V40.4685C10.6777 39.8769 9.23344 39.0785 7.92139 38.1088H9.94032C10.2454 38.1088 10.4946 37.8613 10.4946 37.5545V35.3932C10.4946 35.0881 10.2471 34.8389 9.94032 34.8389H7.77899C7.47387 34.8389 7.22468 35.0864 7.22468 35.3932V37.5545C7.22468 37.5596 7.22637 37.5647 7.22637 37.5698C3.3326 34.3897 0.779692 29.6314 0.549151 24.2679C0.53898 24.534 0.528809 24.7985 0.528809 25.0663C0.528809 27.9752 1.09838 30.7502 2.12904 33.2878C2.33246 33.7879 2.55283 34.2778 2.79015 34.7575C2.79015 34.7575 2.79015 34.7592 2.79184 34.7592C3.02916 35.2389 3.28344 35.7068 3.55466 36.1662C3.55636 36.1696 3.55805 36.1713 3.55975 36.1747C3.82928 36.6307 4.11576 37.0765 4.4158 37.5104C4.41919 37.5155 4.42258 37.5189 4.42428 37.524C4.72432 37.9563 5.03962 38.3767 5.36848 38.7835C5.37357 38.7903 5.37865 38.7971 5.38374 38.8038C5.7109 39.209 6.05333 39.6023 6.40761 39.982C6.41609 39.9905 6.42456 39.9989 6.43304 40.0091C6.78563 40.3854 7.15179 40.7499 7.52981 41.1008C7.54167 41.1127 7.55354 41.1228 7.5654 41.1347C7.94173 41.4822 8.32992 41.8161 8.72998 42.1365C8.74523 42.1484 8.76049 42.162 8.77744 42.1738C8.97747 42.3332 9.17919 42.4891 9.386 42.6417C9.39278 42.6468 9.39956 42.6502 9.40465 42.6552C9.60129 42.801 9.80301 42.9434 10.0047 43.0824C10.0234 43.096 10.0437 43.1096 10.0624 43.1231C10.2692 43.2655 10.4794 43.4028 10.6913 43.5384C10.7082 43.5486 10.7269 43.5605 10.7438 43.5706C10.9422 43.6961 11.1439 43.8181 11.3473 43.9368C11.371 43.9503 11.3931 43.9639 11.4168 43.9775C11.6304 44.1012 11.8474 44.2233 12.066 44.3402C12.0932 44.3555 12.1203 44.369 12.1491 44.3843C12.3491 44.4911 12.5526 44.5945 12.7577 44.6945C12.7831 44.7081 12.8102 44.7199 12.8356 44.7335C13.056 44.8403 13.2781 44.9437 13.5018 45.0437C13.5374 45.0607 13.5747 45.0759 13.6103 45.0912C13.8138 45.181 14.0206 45.2675 14.2274 45.3505C14.2545 45.3624 14.2833 45.3743 14.3104 45.3844C14.5359 45.4743 14.7647 45.5607 14.9936 45.6421C15.0377 45.6574 15.0817 45.6726 15.1258 45.6896C15.3343 45.7625 15.5445 45.8337 15.7564 45.9015C15.7835 45.9099 15.8123 45.9201 15.8395 45.9286C16.0717 46.0015 16.3039 46.0693 16.5396 46.1354C16.5904 46.149 16.6413 46.1625 16.6904 46.1761C16.9057 46.2337 17.121 46.2897 17.338 46.3405C17.3634 46.3473 17.3905 46.3541 17.416 46.3592C17.6533 46.4151 17.8923 46.4643 18.133 46.5117C18.1873 46.5219 18.2432 46.5338 18.2991 46.5439C18.5229 46.5863 18.7484 46.6253 18.9738 46.6609C18.9958 46.6643 19.0162 46.6677 19.0382 46.6711C19.2806 46.7084 19.5247 46.7406 19.7705 46.7694C19.8299 46.7762 19.8892 46.7829 19.9485 46.7897C20.1842 46.8168 20.4215 46.8389 20.6605 46.8575C20.674 46.8592 20.6859 46.8592 20.6995 46.8609C20.9487 46.8796 21.1979 46.8931 21.4487 46.905C21.5098 46.9084 21.5725 46.9101 21.6335 46.9118C21.8861 46.9203 22.1387 46.927 22.3946 46.927C22.6506 46.927 22.9032 46.9203 23.1558 46.9118C23.2168 46.9101 23.2795 46.9067 23.3405 46.905C23.5914 46.8948 23.8406 46.8813 24.0898 46.8609C24.1034 46.8592 24.1152 46.8592 24.1288 46.8575C24.3678 46.8389 24.6051 46.8152 24.8407 46.7897C24.9001 46.7829 24.9594 46.7762 25.0187 46.7694C25.2645 46.7406 25.5086 46.7084 25.751 46.6711C25.7731 46.6677 25.7934 46.6643 25.8155 46.6609C26.0409 46.6253 26.2664 46.5863 26.4901 46.5439C26.5461 46.5338 26.6003 46.5236 26.6563 46.5117C26.897 46.4643 27.136 46.4134 27.3716 46.3592C27.397 46.3524 27.4225 46.3456 27.4496 46.3405C27.6666 46.2897 27.8836 46.2337 28.0988 46.1761C28.1497 46.1625 28.2005 46.149 28.2497 46.1354C28.4836 46.071 28.7176 46.0015 28.9498 45.9303C28.9786 45.9218 29.0057 45.9116 29.0346 45.9032C29.2465 45.8354 29.455 45.7659 29.6635 45.6913C29.7075 45.676 29.7516 45.6608 29.7957 45.6438C30.0245 45.5607 30.2534 45.476 30.4788 45.3861C30.5077 45.3743 30.5348 45.3624 30.5619 45.3522C30.7687 45.2692 30.9755 45.1827 31.1789 45.0929C31.2145 45.0776 31.2518 45.0607 31.2874 45.0454C31.5112 44.9454 31.7333 44.842 31.9536 44.7352C31.979 44.7216 32.0062 44.7098 32.0316 44.6962C32.2367 44.5962 32.4384 44.4911 32.6402 44.3843C32.6673 44.369 32.6944 44.3555 32.7232 44.3402C32.9419 44.2233 33.1572 44.1029 33.3725 43.9775C33.3962 43.9639 33.4182 43.9503 33.442 43.9368C33.6454 43.8181 33.8454 43.6961 34.0454 43.5706C34.0624 43.5605 34.081 43.5486 34.098 43.5384C34.3099 43.4045 34.5201 43.2655 34.7269 43.1231C34.7472 43.1096 34.7659 43.096 34.7862 43.0824C34.988 42.9434 35.188 42.801 35.3846 42.6552C35.3914 42.6502 35.3982 42.6451 35.405 42.64C35.6101 42.4874 35.8135 42.3315 36.0118 42.1721C36.0271 42.1603 36.044 42.1467 36.0593 42.1348C36.4593 41.8144 36.8475 41.4805 37.2239 41.133C37.2357 41.1228 37.2476 41.111 37.2595 41.1008C37.6375 40.7499 38.0036 40.3854 38.3562 40.0091C38.3647 40.0006 38.3732 39.9905 38.3817 39.982C38.7359 39.6023 39.0784 39.209 39.4055 38.8038C39.4106 38.7971 39.4157 38.7903 39.4208 38.7835C39.7496 38.375 40.0649 37.9546 40.365 37.524C40.3684 37.5189 40.3718 37.5155 40.3735 37.5104C40.6752 37.0765 40.96 36.6307 41.2295 36.1747C41.2312 36.173 41.2329 36.1696 41.2329 36.1679C41.5041 35.7102 41.7584 35.2406 41.9957 34.7609C41.9957 34.7609 41.9957 34.7592 41.9974 34.7592C43.4451 31.8384 44.2588 28.5482 44.2588 25.068C44.2571 12.9866 34.4675 3.19708 22.3929 3.19708Z" fill="#106196"/>
<path d="M23.566 17.5635C23.566 17.7178 23.6914 17.8432 23.8457 17.8432H25.5951C25.7493 17.8432 25.8748 17.7178 25.8748 17.5635V15.8853C25.8748 15.731 25.7493 15.6056 25.5951 15.6056H23.8457C23.6914 15.6056 23.566 15.731 23.566 15.8853V17.5635Z" fill="#106196"/>
<path d="M34.4811 25.9817H33.4149C33.2844 25.9817 33.1793 26.0868 33.1793 26.2173V27.2378C33.1793 27.3683 33.2844 27.4734 33.4149 27.4734H34.4811C34.6117 27.4734 34.7168 27.3683 34.7168 27.2378V26.2173C34.7168 26.0868 34.6117 25.9817 34.4811 25.9817Z" fill="#106196"/>
<path d="M18.9518 25.5613V29.5008C18.9518 29.6873 18.8009 29.8381 18.6144 29.8381H14.6749C14.4884 29.8381 14.3376 29.6873 14.3376 29.5008V25.5613C14.3376 25.3748 14.4884 25.2239 14.6749 25.2239H18.6144C18.8009 25.2239 18.9518 25.3748 18.9518 25.5613ZM14.8817 31.952C14.7936 31.952 14.7241 32.0232 14.7241 32.1096V32.9471C14.7241 33.0352 14.7952 33.1047 14.8817 33.1047H15.7191C15.8073 33.1047 15.8768 33.0335 15.8768 32.9471V32.1096C15.8768 32.0215 15.8056 31.952 15.7191 31.952H14.8817ZM11.2625 14.9292V15.5242C11.2625 15.6785 11.388 15.8039 11.5422 15.8039H12.1728C12.3271 15.8039 12.4525 15.6785 12.4525 15.5242V14.9292C12.4525 14.775 12.3271 14.6495 12.1728 14.6495H11.5422C11.3863 14.6495 11.2625 14.775 11.2625 14.9292ZM16.9786 7.38918H12.3186C11.866 7.38918 11.4999 7.75533 11.4999 8.20794V12.6781C11.4999 13.1307 11.866 13.4968 12.3186 13.4968H16.9786C17.4312 13.4968 17.7974 13.1307 17.7974 12.6781V8.20794C17.7991 7.75533 17.4312 7.38918 16.9786 7.38918ZM18.567 32.0978V33.7302C18.567 33.9167 18.7178 34.0676 18.9043 34.0676H20.5367C20.7232 34.0676 20.8741 33.9167 20.8741 33.7302V32.0978C20.8741 31.9113 20.7232 31.7604 20.5367 31.7604H18.9043C18.7178 31.7604 18.567 31.9113 18.567 32.0978ZM5.45832 20.8013H9.18258C9.69283 20.8013 10.1081 20.3876 10.1081 19.8757V15.9582C10.1081 15.448 9.69452 15.0326 9.18258 15.0326H5.45832C4.94808 15.0326 4.53277 15.4463 4.53277 15.9582V19.8757C4.53277 20.3876 4.94808 20.8013 5.45832 20.8013ZM9.52331 13.8816C9.67757 13.8816 9.80301 13.7562 9.80301 13.6019V11.661C9.80301 11.5067 9.67757 11.3813 9.52331 11.3813H7.50438C7.35012 11.3813 7.22468 11.5067 7.22468 11.661V13.6019C7.22468 13.7562 7.35012 13.8816 7.50438 13.8816H9.52331ZM19.9129 38.2631V39.1005C19.9129 39.1886 19.9841 39.2581 20.0706 39.2581H20.908C20.9961 39.2581 21.0656 39.1869 21.0656 39.1005V38.2631C21.0656 38.1749 20.9944 38.1054 20.908 38.1054H20.0706C19.9841 38.1037 19.9129 38.1749 19.9129 38.2631ZM20.6385 11.7542H19.5722C19.4417 11.7542 19.3366 11.8593 19.3366 11.9898V13.0103C19.3366 13.1408 19.4417 13.2459 19.5722 13.2459H20.6385C20.769 13.2459 20.8741 13.1408 20.8741 13.0103V11.9898C20.8741 11.861 20.769 11.7542 20.6385 11.7542ZM24.4831 10.9507C24.6136 10.9507 24.7187 10.8456 24.7187 10.7151V10.0675C24.7187 9.937 24.6136 9.8319 24.4831 9.8319H23.8016C23.6711 9.8319 23.566 9.937 23.566 10.0675V10.7151C23.566 10.8456 23.6711 10.9507 23.8016 10.9507H24.4831ZM29.4821 17.1092C29.6126 17.1092 29.7177 17.0041 29.7177 16.8736V16.226C29.7177 16.0955 29.6126 15.9904 29.4821 15.9904H28.8006C28.6701 15.9904 28.565 16.0955 28.565 16.226V16.8736C28.565 17.0041 28.6701 17.1092 28.8006 17.1092H29.4821ZM25.4883 19.9554V23.0456C25.4883 23.4271 25.7985 23.7373 26.1799 23.7373H29.4109C29.7923 23.7373 30.1025 23.4271 30.1025 23.0456V19.9554C30.1025 19.574 29.7923 19.2638 29.4109 19.2638H26.1799C25.7985 19.2638 25.4883 19.574 25.4883 19.9554ZM23.566 37.19C23.566 37.3765 23.7169 37.5274 23.9033 37.5274H24.7679C24.9543 37.5274 25.1052 37.3765 25.1052 37.19V36.134C25.1052 35.9475 24.9543 35.7966 24.7679 35.7966H23.9033C23.7169 35.7966 23.566 35.9475 23.566 36.134V37.19ZM3.08171 23.9949H4.83112C4.98538 23.9949 5.11082 23.8695 5.11082 23.7152V22.037C5.11082 21.8828 4.98538 21.7573 4.83112 21.7573H3.08171C2.92745 21.7573 2.80201 21.8828 2.80201 22.037V23.7152C2.80371 23.8695 2.92745 23.9949 3.08171 23.9949ZM10.3455 21.7624C10.1912 21.7624 10.0658 21.8879 10.0658 22.0421V22.8304C10.0658 22.9846 10.1912 23.1101 10.3455 23.1101H11.1744C11.3287 23.1101 11.4541 22.9846 11.4541 22.8304V22.0421C11.4541 21.8879 11.3287 21.7624 11.1744 21.7624H10.3455ZM22.3929 2.81226C16.3175 2.81226 10.8218 5.29227 6.86022 9.29284C10.0454 6.55008 14.1884 4.88713 18.7229 4.88713C19.0891 4.88713 19.4518 4.89899 19.8112 4.92103H19.2315C19.0772 4.92103 18.9518 5.04647 18.9518 5.20073V7.0654C18.9518 7.21966 19.0772 7.34511 19.2315 7.34511H21.1724C21.3267 7.34511 21.4521 7.21966 21.4521 7.0654V5.20073C21.4521 5.16005 21.4437 5.12275 21.4284 5.08885C22.2234 5.20751 23.0015 5.37703 23.7592 5.5957V6.49075C23.7592 6.64501 23.8847 6.77045 24.0389 6.77045H25.0187C25.173 6.77045 25.2984 6.64501 25.2984 6.49075V6.11442C26.1799 6.45684 27.0292 6.86538 27.8395 7.33493H26.6512C26.3291 7.33493 26.068 7.59599 26.068 7.91807V12.7188C26.068 13.0408 26.3291 13.3019 26.6512 13.3019H31.6383C31.9604 13.3019 32.2215 13.0408 32.2215 12.7188V10.8829C33.1996 11.9644 34.0471 13.1663 34.7455 14.4614H39.6005C40.4091 14.4614 41.0651 15.1174 41.0651 15.926V22.8015C41.0651 23.6101 40.4091 24.2662 39.6005 24.2662H36.8797C36.7899 25.6596 36.5458 27.0123 36.1593 28.304H35.0286C34.6472 28.304 34.337 28.6142 34.337 28.9956V32.4351C33.9844 33.0233 33.5979 33.5895 33.1843 34.132V33.4607C33.1843 33.3725 33.1131 33.303 33.0267 33.303H32.1893C32.1011 33.303 32.0316 33.3742 32.0316 33.4607V34.2981C32.0316 34.3862 32.1028 34.4557 32.1893 34.4557H32.93C32.6113 34.8541 32.2757 35.2389 31.9248 35.6085H27.3343C26.9529 35.6085 26.6427 35.9187 26.6427 36.3001V39.4683C24.2491 40.6278 21.5623 41.2788 18.7229 41.2788C18.6704 41.2788 18.6195 41.2771 18.567 41.2771C18.567 41.272 18.5687 41.2669 18.5687 41.2618V36.4933C18.5687 36.1119 18.2585 35.8017 17.877 35.8017H12.917C12.5356 35.8017 12.2254 36.1119 12.2254 36.4933V40.0837C10.6777 39.4921 9.23344 38.6936 7.92139 37.724H9.94032C10.2454 37.724 10.4946 37.4765 10.4946 37.1697V35.005C10.4946 34.6998 10.2471 34.4507 9.94032 34.4507H7.77899C7.47387 34.4507 7.22468 34.6982 7.22468 35.005V37.1663C7.22468 37.1714 7.22637 37.1765 7.22637 37.1816C3.3326 34.0014 0.779692 29.2431 0.549151 23.8797C0.53898 24.1458 0.528809 24.4102 0.528809 24.6781C0.528809 27.587 1.09838 30.3619 2.12904 32.8996C2.33246 33.3997 2.55283 33.8896 2.79015 34.3693C2.79015 34.3693 2.79015 34.371 2.79184 34.371C3.02916 34.8507 3.28344 35.3186 3.55466 35.778C3.55636 35.7814 3.55805 35.7831 3.55975 35.7864C3.82928 36.2424 4.11576 36.6883 4.4158 37.1222C4.41919 37.1273 4.42258 37.1307 4.42428 37.1358C4.72432 37.5681 5.03962 37.9885 5.36848 38.3953C5.37357 38.4021 5.37865 38.4089 5.38374 38.4156C5.7109 38.8208 6.05333 39.2141 6.40761 39.5938C6.41609 39.6022 6.42456 39.6107 6.43304 39.6209C6.78563 39.9972 7.15179 40.3617 7.52981 40.7126C7.54167 40.7244 7.55354 40.7346 7.5654 40.7465C7.94173 41.094 8.32992 41.4279 8.72998 41.7483C8.74523 41.7602 8.76049 41.7737 8.77744 41.7856C8.97747 41.945 9.17919 42.1009 9.386 42.2535C9.39278 42.2586 9.39956 42.2619 9.40465 42.267C9.60129 42.4128 9.80301 42.5552 10.0047 42.6942C10.0234 42.7078 10.0437 42.7213 10.0624 42.7349C10.2692 42.8773 10.4794 43.0146 10.6913 43.1502C10.7082 43.1604 10.7269 43.1722 10.7438 43.1824C10.9422 43.3079 11.1439 43.4299 11.3473 43.5486C11.371 43.5621 11.3931 43.5757 11.4168 43.5893C11.6304 43.713 11.8474 43.835 12.066 43.952C12.0932 43.9673 12.1203 43.9808 12.1491 43.9961C12.3491 44.1029 12.5526 44.2063 12.7577 44.3063C12.7831 44.3199 12.8102 44.3317 12.8356 44.3453C13.056 44.4521 13.2781 44.5555 13.5018 44.6555C13.5374 44.6725 13.5747 44.6877 13.6103 44.703C13.8138 44.7928 14.0206 44.8793 14.2274 44.9623C14.2545 44.9742 14.2833 44.9861 14.3104 44.9962C14.5359 45.0861 14.7647 45.1725 14.9936 45.2539C15.0377 45.2691 15.0817 45.2844 15.1258 45.3014C15.3343 45.3742 15.5445 45.4454 15.7564 45.5133C15.7835 45.5217 15.8123 45.5319 15.8395 45.5404C16.0717 45.6133 16.3039 45.6811 16.5396 45.7472C16.5904 45.7607 16.6413 45.7743 16.6904 45.7879C16.9057 45.8455 17.121 45.9014 17.338 45.9523C17.3634 45.9591 17.3905 45.9659 17.416 45.9709C17.6533 46.0269 17.8923 46.076 18.133 46.1235C18.1873 46.1337 18.2432 46.1455 18.2991 46.1557C18.5229 46.1981 18.7484 46.2371 18.9738 46.2727C18.9958 46.2761 19.0162 46.2795 19.0382 46.2829C19.2806 46.3201 19.5247 46.3524 19.7705 46.3812C19.8299 46.388 19.8892 46.3947 19.9485 46.4015C20.1842 46.4286 20.4215 46.4507 20.6605 46.4693C20.674 46.471 20.6859 46.471 20.6995 46.4727C20.9487 46.4914 21.1979 46.5049 21.4487 46.5168C21.5098 46.5202 21.5725 46.5219 21.6335 46.5236C21.8861 46.532 22.1387 46.5388 22.3946 46.5388C22.6506 46.5388 22.9032 46.532 23.1558 46.5236C23.2168 46.5219 23.2795 46.5185 23.3405 46.5168C23.5914 46.5066 23.8406 46.4931 24.0898 46.4727C24.1034 46.471 24.1152 46.471 24.1288 46.4693C24.3678 46.4507 24.6051 46.4269 24.8407 46.4015C24.9001 46.3947 24.9594 46.388 25.0187 46.3812C25.2645 46.3524 25.5086 46.3201 25.751 46.2829C25.7731 46.2795 25.7934 46.2761 25.8155 46.2727C26.0409 46.2371 26.2664 46.1981 26.4901 46.1557C26.5461 46.1455 26.6003 46.1354 26.6563 46.1235C26.897 46.076 27.136 46.0252 27.3716 45.9709C27.397 45.9642 27.4225 45.9574 27.4496 45.9523C27.6666 45.9014 27.8836 45.8455 28.0988 45.7879C28.1497 45.7743 28.2005 45.7607 28.2497 45.7472C28.4836 45.6828 28.7176 45.6133 28.9498 45.5421C28.9786 45.5336 29.0057 45.5234 29.0346 45.5149C29.2465 45.4471 29.455 45.3776 29.6635 45.3031C29.7075 45.2878 29.7516 45.2725 29.7957 45.2556C30.0245 45.1725 30.2534 45.0878 30.4788 44.9979C30.5077 44.9861 30.5348 44.9742 30.5619 44.964C30.7687 44.881 30.9755 44.7945 31.1789 44.7047C31.2145 44.6894 31.2518 44.6725 31.2874 44.6572C31.5112 44.5572 31.7333 44.4538 31.9536 44.347C31.979 44.3334 32.0062 44.3216 32.0316 44.308C32.2367 44.208 32.4384 44.1029 32.6402 43.9961C32.6673 43.9808 32.6944 43.9673 32.7232 43.952C32.9419 43.835 33.1572 43.7147 33.3725 43.5893C33.3962 43.5757 33.4182 43.5621 33.442 43.5486C33.6454 43.4299 33.8454 43.3079 34.0454 43.1824C34.0624 43.1722 34.081 43.1604 34.098 43.1502C34.3099 43.0163 34.5201 42.8773 34.7269 42.7349C34.7472 42.7213 34.7659 42.7078 34.7862 42.6942C34.988 42.5552 35.188 42.4128 35.3846 42.267C35.3914 42.2619 35.3982 42.2569 35.405 42.2518C35.6101 42.0992 35.8135 41.9433 36.0118 41.7839C36.0271 41.772 36.044 41.7585 36.0593 41.7466C36.4593 41.4262 36.8475 41.0923 37.2239 40.7448C37.2357 40.7346 37.2476 40.7227 37.2595 40.7126C37.6375 40.3617 38.0036 39.9972 38.3562 39.6209C38.3647 39.6124 38.3732 39.6022 38.3817 39.5938C38.7359 39.2141 39.0784 38.8208 39.4055 38.4156C39.4106 38.4089 39.4157 38.4021 39.4208 38.3953C39.7496 37.9868 40.0649 37.5664 40.365 37.1358C40.3684 37.1307 40.3718 37.1273 40.3735 37.1222C40.6752 36.6883 40.96 36.2424 41.2295 35.7864C41.2312 35.7847 41.2329 35.7814 41.2329 35.7797C41.5041 35.322 41.7584 34.8524 41.9957 34.3727C41.9957 34.3727 41.9957 34.371 41.9974 34.371C43.4451 31.4502 44.2588 28.1599 44.2588 24.6798C44.2571 12.6018 34.4675 2.81226 22.3929 2.81226ZM23.566 17.1787C23.566 17.333 23.6914 17.4584 23.8457 17.4584H25.5951C25.7494 17.4584 25.8748 17.333 25.8748 17.1787V15.5005C25.8748 15.3462 25.7494 15.2208 25.5951 15.2208H23.8457C23.6914 15.2208 23.566 15.3462 23.566 15.5005V17.1787ZM34.4811 25.7884H33.4149C33.2843 25.7884 33.1792 25.8935 33.1792 26.024V27.0445C33.1792 27.175 33.2843 27.2801 33.4149 27.2801H34.4811C34.6116 27.2801 34.7167 27.175 34.7167 27.0445V26.024C34.7167 25.8952 34.6116 25.7884 34.4811 25.7884Z" fill="url(#paint1_linear_138_79884)"/>
<path d="M15.7174 31.952C15.8056 31.952 15.8751 32.0232 15.8751 32.1096V32.9471C15.8751 33.0352 15.8039 33.1047 15.7174 33.1047H14.88C14.7919 33.1047 14.7224 33.0335 14.7224 32.9471V32.1096C14.7224 32.0215 14.7936 31.952 14.88 31.952H15.7174ZM20.0723 39.2581H20.9097C20.9978 39.2581 21.0673 39.1869 21.0673 39.1005V38.2631C21.0673 38.1749 20.9961 38.1054 20.9097 38.1054H20.0723C19.9841 38.1054 19.9146 38.1766 19.9146 38.2631V39.1005C19.9129 39.1869 19.9841 39.2581 20.0723 39.2581ZM20.8741 33.7302V32.0978C20.8741 31.9113 20.7232 31.7604 20.5367 31.7604H18.9043C18.7178 31.7604 18.567 31.9113 18.567 32.0978V33.7302C18.567 33.9167 18.7178 34.0676 18.9043 34.0676H20.5367C20.7232 34.0676 20.8741 33.9167 20.8741 33.7302ZM34.3319 29.55V32.43C33.9793 33.0183 33.5928 33.5844 33.1792 34.1269V33.4556C33.1792 33.3675 33.108 33.298 33.0216 33.298H32.1842C32.096 33.298 32.0265 33.3692 32.0265 33.4556V34.293C32.0265 34.3812 32.0977 34.4507 32.1842 34.4507H32.9249C32.6063 34.849 32.2706 35.2338 31.9197 35.6034H27.3343C26.9529 35.6034 26.6427 35.9136 26.6427 36.295V39.4632C24.2491 40.6227 21.5623 41.2737 18.7229 41.2737C18.6704 41.2737 18.6195 41.272 18.567 41.272C18.567 41.2669 18.5687 41.2618 18.5687 41.2567V36.4882C18.5687 36.1068 18.2585 35.7966 17.877 35.7966H12.917C12.5356 35.7966 12.2254 36.1068 12.2254 36.4882V40.0786C10.6777 39.487 9.23344 38.6886 7.92139 37.7189H9.94032C10.2454 37.7189 10.4946 37.4714 10.4946 37.1646V35.005C10.4946 34.6999 10.2471 34.4507 9.94032 34.4507H7.77899C7.47387 34.4507 7.22468 34.6982 7.22468 35.005V37.1663C7.22468 37.1714 7.22637 37.1765 7.22637 37.1816C3.3326 34.0014 0.779692 29.2431 0.549151 23.8797C0.53898 24.1458 0.528809 24.4102 0.528809 24.6781C0.528809 27.587 1.09838 30.3619 2.12904 32.8996C2.33246 33.3997 2.55283 33.8896 2.79015 34.3693C2.79015 34.3693 2.79015 34.371 2.79184 34.371C3.02916 34.8507 3.28344 35.3186 3.55466 35.778C3.55636 35.7814 3.55805 35.7831 3.55975 35.7864C3.82928 36.2424 4.11576 36.6883 4.4158 37.1222C4.41919 37.1273 4.42258 37.1307 4.42428 37.1358C4.72432 37.5681 5.03962 37.9885 5.36848 38.3953C5.37357 38.4021 5.37865 38.4089 5.38374 38.4156C5.7109 38.8208 6.05333 39.2141 6.40761 39.5938C6.41609 39.6022 6.42456 39.6107 6.43304 39.6209C6.78563 39.9972 7.15179 40.3617 7.52981 40.7126C7.54167 40.7244 7.55354 40.7346 7.5654 40.7465C7.94173 41.094 8.32992 41.4279 8.72998 41.7483C8.74523 41.7602 8.76049 41.7737 8.77744 41.7856C8.97747 41.945 9.17919 42.1009 9.386 42.2535C9.39278 42.2586 9.39956 42.2619 9.40465 42.267C9.60129 42.4128 9.80301 42.5552 10.0047 42.6942C10.0234 42.7078 10.0437 42.7213 10.0624 42.7349C10.2692 42.8773 10.4794 43.0146 10.6913 43.1502C10.7082 43.1604 10.7269 43.1722 10.7438 43.1824C10.9422 43.3079 11.1439 43.4299 11.3473 43.5486C11.371 43.5621 11.3931 43.5757 11.4168 43.5893C11.6304 43.713 11.8474 43.8351 12.066 43.952C12.0932 43.9673 12.1203 43.9808 12.1491 43.9961C12.3491 44.1029 12.5526 44.2063 12.7577 44.3063C12.7831 44.3199 12.8102 44.3317 12.8356 44.3453C13.056 44.4521 13.2781 44.5555 13.5018 44.6555C13.5374 44.6725 13.5747 44.6877 13.6103 44.703C13.8138 44.7928 14.0206 44.8793 14.2274 44.9623C14.2545 44.9742 14.2833 44.9861 14.3104 44.9962C14.5359 45.0861 14.7647 45.1725 14.9936 45.2539C15.0377 45.2692 15.0817 45.2844 15.1258 45.3014C15.3343 45.3743 15.5445 45.4454 15.7564 45.5133C15.7835 45.5217 15.8123 45.5319 15.8395 45.5404C16.0717 45.6133 16.3039 45.6811 16.5396 45.7472C16.5904 45.7607 16.6413 45.7743 16.6904 45.7879C16.9057 45.8455 17.121 45.9014 17.338 45.9523C17.3634 45.9591 17.3905 45.9659 17.416 45.9709C17.6533 46.0269 17.8923 46.076 18.133 46.1235C18.1873 46.1337 18.2432 46.1455 18.2991 46.1557C18.5229 46.1981 18.7484 46.2371 18.9738 46.2727C18.9958 46.2761 19.0162 46.2795 19.0382 46.2829C19.2806 46.3202 19.5247 46.3524 19.7705 46.3812C19.8299 46.388 19.8892 46.3947 19.9485 46.4015C20.1842 46.4286 20.4215 46.4507 20.6605 46.4693C20.674 46.471 20.6859 46.471 20.6995 46.4727C20.9487 46.4914 21.1979 46.5049 21.4487 46.5168C21.5098 46.5202 21.5725 46.5219 21.6335 46.5236C21.8861 46.532 22.1387 46.5388 22.3946 46.5388C22.6506 46.5388 22.9032 46.532 23.1558 46.5236C23.2168 46.5219 23.2795 46.5185 23.3405 46.5168C23.5914 46.5066 23.8406 46.4931 24.0898 46.4727C24.1034 46.471 24.1152 46.471 24.1288 46.4693C24.3678 46.4507 24.6051 46.4269 24.8407 46.4015C24.9001 46.3947 24.9594 46.388 25.0187 46.3812C25.2645 46.3524 25.5086 46.3202 25.751 46.2829C25.7731 46.2795 25.7934 46.2761 25.8155 46.2727C26.0409 46.2371 26.2664 46.1981 26.4901 46.1557C26.5461 46.1455 26.6003 46.1354 26.6563 46.1235C26.897 46.076 27.136 46.0252 27.3716 45.9709C27.397 45.9642 27.4225 45.9574 27.4496 45.9523C27.6666 45.9014 27.8836 45.8455 28.0988 45.7879C28.1497 45.7743 28.2005 45.7607 28.2497 45.7472C28.4836 45.6828 28.7176 45.6133 28.9498 45.5421C28.9786 45.5336 29.0057 45.5234 29.0346 45.5149C29.2465 45.4471 29.455 45.3776 29.6635 45.3031C29.7075 45.2878 29.7516 45.2725 29.7957 45.2556C30.0245 45.1725 30.2534 45.0878 30.4788 44.9979C30.5077 44.9861 30.5348 44.9742 30.5619 44.964C30.7687 44.881 30.9755 44.7945 31.1789 44.7047C31.2145 44.6894 31.2518 44.6725 31.2874 44.6572C31.5112 44.5572 31.7333 44.4538 31.9536 44.347C31.979 44.3334 32.0062 44.3216 32.0316 44.308C32.2367 44.208 32.4384 44.1029 32.6402 43.9961C32.6673 43.9808 32.6944 43.9673 32.7232 43.952C32.9419 43.8351 33.1572 43.7147 33.3725 43.5893C33.3962 43.5757 33.4182 43.5621 33.442 43.5486C33.6454 43.4299 33.8454 43.3079 34.0454 43.1824C34.0624 43.1722 34.081 43.1604 34.098 43.1502C34.3099 43.0163 34.5201 42.8773 34.7269 42.7349C34.7472 42.7213 34.7659 42.7078 34.7862 42.6942C34.988 42.5552 35.188 42.4128 35.3846 42.267C35.3914 42.2619 35.3982 42.2569 35.405 42.2518C35.6101 42.0992 35.8135 41.9433 36.0118 41.7839C36.0271 41.772 36.044 41.7585 36.0593 41.7466C36.4593 41.4262 36.8475 41.0923 37.2239 40.7448C37.2357 40.7346 37.2476 40.7227 37.2595 40.7126C37.6375 40.3617 38.0036 39.9972 38.3562 39.6209C38.3647 39.6124 38.3732 39.6022 38.3817 39.5938C38.7359 39.2141 39.0784 38.8208 39.4055 38.4156C39.4106 38.4089 39.4157 38.4021 39.4208 38.3953C39.7496 37.9868 40.0649 37.5664 40.365 37.1358C40.3684 37.1307 40.3718 37.1273 40.3735 37.1222C40.6752 36.6883 40.96 36.2424 41.2295 35.7864C41.2312 35.7847 41.2329 35.7814 41.2329 35.7797C41.5041 35.322 41.7584 34.8524 41.9957 34.3727C41.9957 34.3727 41.9957 34.371 41.9974 34.371C43.4451 31.4502 44.2588 28.1599 44.2588 24.6798C44.2588 24.256 44.2452 23.8339 44.2215 23.4152C41.4194 26.102 38.0596 28.2108 34.3319 29.55ZM23.9033 37.5274H24.7679C24.9543 37.5274 25.1052 37.3765 25.1052 37.19V36.134C25.1052 35.9475 24.9543 35.7966 24.7679 35.7966H23.9033C23.7169 35.7966 23.566 35.9475 23.566 36.134V37.19C23.566 37.3765 23.7169 37.5274 23.9033 37.5274Z" fill="url(#paint2_linear_138_79884)"/>
<path d="M207.645 18.4942C209.927 18.4942 211.778 16.6438 211.778 14.3614C211.778 12.0789 209.927 10.2286 207.645 10.2286C205.362 10.2286 203.512 12.0789 203.512 14.3614C203.512 16.6438 205.362 18.4942 207.645 18.4942Z" fill="#BE0A0B"/>
<path d="M39.153 15.4886H33.3369C32.7181 15.4886 32.2164 15.9904 32.2164 16.6091V22.1811C32.2164 22.3405 32.2503 22.493 32.3113 22.6303L29.8347 25.107C29.8008 25.1036 29.7669 25.1019 29.733 25.1019H23.9169C23.8881 25.1019 23.8609 25.1036 23.8321 25.107L21.3453 22.6202C21.403 22.4863 21.4335 22.3388 21.4335 22.1828V16.6108C21.4335 15.9921 20.9317 15.4903 20.313 15.4903H14.4969C13.8782 15.4903 13.3764 15.9921 13.3764 16.6108V22.1828C13.3764 22.3422 13.4103 22.4947 13.4713 22.632L10.9947 25.1087C10.9608 25.1053 10.9269 25.1036 10.893 25.1036H5.07692C4.45819 25.1036 3.95642 25.6053 3.95642 26.2241V31.7961C3.95642 32.4148 4.45819 32.9166 5.07692 32.9166H10.893C11.5117 32.9166 12.0135 32.4148 12.0135 31.7961V26.2241C12.0135 26.0512 11.9728 25.8867 11.9016 25.741L14.3494 23.2931C14.3986 23.2999 14.4477 23.3033 14.4969 23.3033H20.313C20.3689 23.3033 20.4232 23.2982 20.4757 23.2898L22.9134 25.7274C22.8388 25.8766 22.7964 26.0444 22.7964 26.2241V31.7961C22.7964 32.4148 23.2982 32.9166 23.9169 32.9166H29.733C30.3517 32.9166 30.8535 32.4148 30.8535 31.7961V26.2241C30.8535 26.0512 30.8128 25.8867 30.7416 25.741L33.1894 23.2931C33.2386 23.2999 33.2877 23.3033 33.3369 23.3033H39.153C39.7717 23.3033 40.2735 22.8016 40.2735 22.1828V16.6108C40.2735 15.9904 39.7717 15.4886 39.153 15.4886Z" fill="url(#paint3_linear_138_79884)"/>
<path d="M63.6598 17.3414H62.68C56.3673 17.3414 51.2513 22.4591 51.2513 28.7702V29.5584C51.2513 35.8712 56.369 40.9872 62.68 40.9872H63.6598C69.9726 40.9872 75.0886 35.8695 75.0886 29.5584V28.7702C75.0886 22.4591 69.9709 17.3414 63.6598 17.3414ZM70.8592 29.7992C70.8592 33.6963 67.6994 36.8544 63.8039 36.8544H62.7275C58.8303 36.8544 55.6722 33.6946 55.6722 29.7992V28.7227C55.6722 24.8256 58.8303 21.6675 62.7275 21.6675H63.8039C67.7011 21.6675 70.8592 24.8273 70.8592 28.7227V29.7992Z" fill="#005192"/>
<path d="M96.3324 17.9178C95.1119 17.9178 94.1219 18.9078 94.1219 20.1283V32.5318L83.5899 19.3384C83.4916 19.2129 83.3831 19.0993 83.2729 18.9909C82.9474 18.4637 82.366 18.1094 81.7015 18.1094H81.5811C81.1828 18.045 80.7878 18.0687 80.425 18.1924C80.2013 18.2619 79.9945 18.3738 79.8165 18.5179C79.8114 18.523 79.8046 18.5264 79.7995 18.5298C79.7317 18.584 79.6707 18.645 79.6147 18.7095C79.313 19.0383 79.1282 19.4757 79.1282 19.9554V38.7547C79.1282 39.7752 79.9555 40.6007 80.9743 40.6007H81.7032C82.7237 40.6007 83.5492 39.7735 83.5492 38.7547V26.0308L94.2558 39.5497C94.5406 39.9091 94.9068 40.1752 95.3051 40.3464C95.6119 40.5092 95.9628 40.6007 96.3341 40.6007C96.9715 40.6007 97.5427 40.3295 97.9462 39.8989C98.1191 39.7209 98.2513 39.526 98.3377 39.3175C98.4683 39.0344 98.5446 38.7208 98.5446 38.3885V20.13C98.5429 18.9078 97.5529 17.9178 96.3324 17.9178Z" fill="#005192"/>
<path d="M112.836 17.9483C112.753 17.9297 112.667 17.9178 112.577 17.9178H104.066H103.786H103.733C103.096 17.9178 102.581 18.4348 102.581 19.0705V19.1112C102.581 19.1129 102.581 19.1146 102.581 19.118C102.581 19.1197 102.581 19.1214 102.581 19.1248V31.3757V31.4163V39.3971C102.581 40.0633 103.121 40.6041 103.788 40.6041H104.067C104.734 40.6041 105.274 40.0633 105.274 39.3971V32.5691H111.426C111.492 32.5691 111.555 32.5623 111.618 32.5521C113.035 32.4351 119.5 31.557 119.5 25.2239C119.498 19.1027 114.391 18.1077 112.836 17.9483ZM111.343 30.223H105.273V20.2673H112.35C113.538 20.4199 117 21.381 117 24.8408C117 28.3007 114.915 29.8382 111.343 30.223Z" fill="#005192"/>
<path d="M132.777 18.4179C132.777 18.4179 132.571 17.533 131.417 17.533C130.264 17.533 129.88 17.9178 129.717 18.2094V18.2111C129.691 18.2534 129.668 18.2958 129.647 18.3416L120.334 39.0056C120.061 39.6107 120.331 40.3244 120.936 40.5973C121.541 40.8702 122.255 40.6007 122.528 39.9955L125.026 34.4524H137.333L139.818 39.9921C140.089 40.599 140.801 40.8685 141.408 40.5973C142.015 40.3261 142.285 39.6141 142.013 39.0072L132.777 18.4179ZM126.065 32.1453L131.193 20.7674L136.297 32.1453H126.065Z" fill="#005192"/>
<path d="M237.251 38.1037H224.466V30.4145H235.713C236.403 30.4145 236.963 29.8551 236.963 29.1652C236.963 28.4752 236.403 27.9158 235.713 27.9158H224.466V20.2266H237.057C237.747 20.2266 238.307 19.6672 238.307 18.9773C238.307 18.2874 237.747 17.728 237.057 17.728H223.215C222.525 17.728 221.966 18.2874 221.966 18.9773V39.3565C221.966 40.0464 222.525 40.6058 223.215 40.6058H237.249C237.939 40.6058 238.498 40.0464 238.498 39.3565C238.5 38.6631 237.941 38.1037 237.251 38.1037Z" fill="#005192"/>
<path d="M156.602 28.299C151.027 27.1463 149.296 26.1834 149.104 23.878C148.96 22.1438 149.869 19.8401 153.91 19.8401C157.563 19.8401 159.24 21.5268 159.65 21.7404C159.85 21.876 160.091 21.954 160.35 21.954C161.04 21.954 161.599 21.3946 161.599 20.7047C161.599 20.3911 161.482 20.1046 161.291 19.8842C161.209 19.791 161.116 19.7113 161.013 19.6452C160.072 18.9061 157.66 17.5313 153.717 17.5313C149.296 17.5313 147.372 20.03 146.604 22.3371C145.836 24.6442 146.795 27.3361 149.103 28.6821C151.41 30.028 156.409 30.4128 158.138 31.5655C159.869 32.7182 160.83 34.6422 159.099 36.9476C157.368 39.2548 151.742 39.3293 147.923 35.9272C147.701 35.7254 147.407 35.6017 147.084 35.6017C146.394 35.6017 145.834 36.1611 145.834 36.851C145.834 37.2087 145.985 37.5291 146.224 37.7579C146.241 37.7749 146.261 37.7935 146.285 37.8139C146.287 37.8156 146.289 37.8173 146.29 37.8173C147.019 38.4614 150.22 40.794 154.678 40.794C159.292 40.794 161.516 38.7157 162.367 35.9882C163.33 32.9132 161.772 29.3686 156.602 28.299Z" fill="#005192"/>
<path d="M190.919 17.7263C190.229 17.7263 189.669 18.2857 189.669 18.9756V39.3548C189.669 40.0447 190.229 40.6041 190.919 40.6041C191.609 40.6041 192.168 40.0447 192.168 39.3548V18.9756C192.168 18.2857 191.609 17.7263 190.919 17.7263Z" fill="#005192"/>
<path d="M177.557 28.299C171.982 27.1463 170.251 26.1834 170.06 23.878C169.916 22.1438 170.824 19.8401 174.866 19.8401C178.519 19.8401 180.195 21.5268 180.605 21.7404C180.805 21.876 181.046 21.954 181.305 21.954C181.995 21.954 182.555 21.3946 182.555 20.7047C182.555 20.3911 182.438 20.1046 182.246 19.8842C182.165 19.791 182.072 19.7113 181.968 19.6452C181.027 18.9061 178.615 17.5313 174.672 17.5313C170.251 17.5313 168.327 20.03 167.559 22.3371C166.79 24.6442 167.751 27.3361 170.058 28.6821C172.365 30.028 177.364 30.4128 179.093 31.5655C180.824 32.7182 181.785 34.6422 180.054 36.9476C178.324 39.2548 172.697 39.3293 168.878 35.9272C168.656 35.7254 168.363 35.6017 168.039 35.6017C167.349 35.6017 166.79 36.1611 166.79 36.851C166.79 37.2087 166.941 37.5291 167.18 37.7579C167.197 37.7749 167.217 37.7935 167.241 37.8139C167.242 37.8156 167.244 37.8173 167.246 37.8173C167.975 38.4614 171.175 40.794 175.633 40.794C180.248 40.794 182.472 38.7157 183.323 35.9882C184.286 32.9132 182.726 29.3686 177.557 28.299Z" fill="#005192"/>
<path d="M63.6598 16.7651H62.68C56.3673 16.7651 51.2513 21.8828 51.2513 28.1939V28.9821C51.2513 35.2949 56.369 40.4109 62.68 40.4109H63.6598C69.9726 40.4109 75.0886 35.2932 75.0886 28.9821V28.1939C75.0886 21.8811 69.9709 16.7651 63.6598 16.7651ZM70.8592 29.2228C70.8592 33.12 67.6994 36.2781 63.8039 36.2781H62.7275C58.8303 36.2781 55.6722 33.1183 55.6722 29.2228V28.1464C55.6722 24.2492 58.8303 21.0911 62.7275 21.0911H63.8039C67.7011 21.0911 70.8592 24.2509 70.8592 28.1464V29.2228Z" fill="url(#paint4_linear_138_79884)"/>
<path d="M96.3324 17.3414C95.1119 17.3414 94.1219 18.3314 94.1219 19.5519V31.9554L83.5899 18.762C83.4916 18.6365 83.3831 18.523 83.2729 18.4145C82.9474 17.8873 82.366 17.533 81.7015 17.533H81.5811C81.1828 17.4686 80.7878 17.4923 80.425 17.6161C80.2013 17.6856 79.9945 17.7974 79.8165 17.9415C79.8114 17.9466 79.8046 17.95 79.7995 17.9534C79.7317 18.0076 79.6707 18.0687 79.6147 18.1331C79.313 18.4619 79.1282 18.8993 79.1282 19.379V38.1783C79.1282 39.1988 79.9555 40.0243 80.9743 40.0243H81.7032C82.7237 40.0243 83.5492 39.1971 83.5492 38.1783V25.4545L94.2558 38.9733C94.5406 39.3327 94.9068 39.5989 95.3051 39.7701C95.6119 39.9328 95.9628 40.0243 96.3341 40.0243C96.9715 40.0243 97.5427 39.7531 97.9462 39.3225C98.1191 39.1446 98.2513 38.9496 98.3377 38.7411C98.4683 38.458 98.5446 38.1444 98.5446 37.8122V19.5519C98.5429 18.3314 97.5529 17.3414 96.3324 17.3414Z" fill="url(#paint5_linear_138_79884)"/>
<path d="M112.836 17.372C112.753 17.3533 112.667 17.3414 112.577 17.3414H104.066H103.786H103.733C103.096 17.3414 102.581 17.8585 102.581 18.4942V18.5348C102.581 18.5365 102.581 18.5382 102.581 18.5416C102.581 18.5433 102.581 18.545 102.581 18.5484V30.7993V30.84V38.8208C102.581 39.487 103.121 40.0277 103.788 40.0277H104.067C104.734 40.0277 105.274 39.487 105.274 38.8208V31.9927H111.426C111.492 31.9927 111.555 31.9859 111.618 31.9757C113.035 31.8588 119.5 30.9807 119.5 24.6476C119.498 18.5264 114.391 17.5313 112.836 17.372ZM111.343 29.6449H105.273V19.6892H112.35C113.538 19.8418 117 20.803 117 24.2628C117 27.7226 114.915 29.2618 111.343 29.6449Z" fill="url(#paint6_linear_138_79884)"/>
<path d="M132.777 17.8415C132.777 17.8415 132.571 16.9566 131.417 16.9566C130.264 16.9566 129.88 17.3415 129.717 17.633V17.6347C129.691 17.6771 129.668 17.7195 129.647 17.7652L120.334 38.4292C120.061 39.0344 120.331 39.748 120.936 40.021C121.541 40.2939 122.255 40.0243 122.528 39.4192L125.026 33.876H137.333L139.818 39.4158C140.089 40.0226 140.801 40.2922 141.408 40.021C142.015 39.7497 142.285 39.0378 142.013 38.4309L132.777 17.8415ZM126.065 31.5672L131.193 20.1893L136.297 31.5672H126.065Z" fill="url(#paint7_linear_138_79884)"/>
<path d="M237.251 37.5274H224.466V29.8382H235.713C236.403 29.8382 236.963 29.2787 236.963 28.5888C236.963 27.8989 236.403 27.3395 235.713 27.3395H224.466V19.6503H237.057C237.747 19.6503 238.307 19.0909 238.307 18.4009C238.307 17.711 237.747 17.1516 237.057 17.1516H223.215C222.525 17.1516 221.966 17.711 221.966 18.4009V38.7801C221.966 39.47 222.525 40.0294 223.215 40.0294H237.249C237.939 40.0294 238.498 39.47 238.498 38.7801C238.498 38.0902 237.941 37.5274 237.251 37.5274Z" fill="url(#paint8_linear_138_79884)"/>
<path d="M156.602 27.7226C151.027 26.5699 149.296 25.6071 149.104 23.3016C148.96 21.5675 149.869 19.2638 153.91 19.2638C157.563 19.2638 159.24 20.9505 159.65 21.164C159.85 21.2997 160.091 21.3776 160.35 21.3776C161.04 21.3776 161.599 20.8182 161.599 20.1283C161.599 19.8147 161.482 19.5282 161.291 19.3078C161.209 19.2146 161.116 19.1349 161.013 19.0688C160.072 18.3297 157.66 16.955 153.717 16.955C149.296 16.955 147.372 19.4536 146.604 21.7607C145.834 24.0678 146.795 26.7598 149.103 28.1057C151.41 29.4517 156.409 29.8365 158.138 30.9892C159.869 32.1419 160.83 34.0659 159.099 36.3713C157.368 38.6784 151.742 38.753 147.923 35.3508C147.701 35.1491 147.407 35.0253 147.084 35.0253C146.394 35.0253 145.834 35.5847 145.834 36.2747C145.834 36.6323 145.985 36.9527 146.224 37.1816C146.241 37.1985 146.261 37.2172 146.285 37.2375C146.287 37.2392 146.289 37.2409 146.29 37.2409C147.019 37.8851 150.22 40.2176 154.678 40.2176C159.292 40.2176 161.516 38.1393 162.367 35.4118C163.33 32.3368 161.772 28.7922 156.602 27.7226Z" fill="url(#paint9_linear_138_79884)"/>
<path d="M190.919 17.1499C190.229 17.1499 189.669 17.7093 189.669 18.3992V38.7784C189.669 39.4683 190.229 40.0277 190.919 40.0277C191.609 40.0277 192.168 39.4683 192.168 38.7784V18.3992C192.168 17.7093 191.609 17.1499 190.919 17.1499Z" fill="url(#paint10_linear_138_79884)"/>
<path d="M177.557 27.7226C171.982 26.5699 170.251 25.6071 170.06 23.3016C169.916 21.5675 170.824 19.2638 174.866 19.2638C178.519 19.2638 180.195 20.9505 180.605 21.164C180.805 21.2997 181.046 21.3776 181.305 21.3776C181.995 21.3776 182.555 20.8182 182.555 20.1283C182.555 19.8147 182.438 19.5282 182.246 19.3078C182.165 19.2146 182.072 19.1349 181.968 19.0688C181.027 18.3297 178.615 16.955 174.672 16.955C170.251 16.955 168.327 19.4536 167.559 21.7607C166.79 24.0678 167.751 26.7598 170.058 28.1057C172.365 29.4517 177.364 29.8365 179.093 30.9892C180.822 32.1419 181.785 34.0659 180.054 36.3713C178.324 38.6784 172.697 38.753 168.878 35.3508C168.656 35.1491 168.363 35.0253 168.039 35.0253C167.349 35.0253 166.79 35.5847 166.79 36.2747C166.79 36.6323 166.941 36.9527 167.18 37.1816C167.197 37.1985 167.217 37.2172 167.241 37.2375C167.242 37.2392 167.244 37.2409 167.246 37.2409C167.975 37.8851 171.175 40.2176 175.633 40.2176C180.248 40.2176 182.472 38.1393 183.323 35.4118C184.286 32.3368 182.726 28.7922 177.557 27.7226Z" fill="url(#paint11_linear_138_79884)"/>
<path d="M191.207 7.96385C193.129 10.5405 198.704 18.6705 201.396 27.3937C204.088 36.117 205.434 41.0737 206.011 50.9869C206.395 49.4003 209.664 36.3153 213.317 27.5921C216.97 18.8688 222.352 5.38721 231.389 0.232239C231.389 0.232239 227.544 1.22391 221.199 7.96385C214.854 14.7038 210.818 21.2471 207.357 28.7804C205.626 24.8154 200.05 14.1088 191.207 7.96385Z" fill="#EC6E0A"/>
<path d="M191.207 7.53666C193.129 10.0353 198.704 17.9178 201.396 26.3766C204.088 34.8355 205.434 39.6412 206.011 49.2545C206.395 47.717 209.664 35.0287 213.317 26.5699C216.97 18.1111 222.352 5.038 231.389 0.0389862C231.389 0.0389862 227.544 1.00014 221.199 7.53666C214.854 14.0732 210.818 20.4182 207.357 27.7226C205.626 23.878 200.05 13.4968 191.207 7.53666Z" fill="url(#paint12_linear_138_79884)"/>
<path d="M207.645 18.1094C209.927 18.1094 211.778 16.2591 211.778 13.9766C211.778 11.6941 209.927 9.84378 207.645 9.84378C205.362 9.84378 203.512 11.6941 203.512 13.9766C203.512 16.2591 205.362 18.1094 207.645 18.1094Z" fill="url(#paint13_linear_138_79884)"/>
<path opacity="0.89" d="M211.201 13.6019C211.201 15.5107 204.088 15.5107 204.088 13.6019C204.088 11.6932 205.68 10.1455 207.645 10.1455C209.609 10.1455 211.201 11.6932 211.201 13.6019Z" fill="url(#paint14_linear_138_79884)"/>
<path d="M14.0188 22.0828L14.7884 22.8524L11.3897 26.2495L10.6201 25.4816L14.0188 22.0828Z" fill="url(#paint15_linear_138_79884)"/>
<path d="M32.6673 22.2744L33.4353 23.044L30.0382 26.4427L29.2686 25.6731L32.6673 22.2744Z" fill="url(#paint16_linear_138_79884)"/>
<path d="M20.04 22.8524L20.8096 22.0828L24.2084 25.4816L23.4388 26.2495L20.04 22.8524Z" fill="url(#paint17_linear_138_79884)"/>
<path d="M40.504 36.8561C40.4989 36.8629 40.4922 36.8697 40.4871 36.8764C40.1379 37.2816 39.7717 37.6748 39.3937 38.0546C39.3852 38.063 39.375 38.0732 39.3666 38.0817C38.9902 38.458 38.5987 38.8225 38.1935 39.1734C38.1817 39.1835 38.1681 39.1954 38.1562 39.2056C37.7545 39.5531 37.3392 39.887 36.912 40.2074C36.895 40.2193 36.8781 40.2328 36.8611 40.2447C36.6475 40.4041 36.4306 40.56 36.2119 40.7126C36.2051 40.7177 36.1983 40.7227 36.1898 40.7278C35.9797 40.8736 35.7661 41.016 35.5508 41.155C35.5304 41.1686 35.5084 41.1821 35.4881 41.1957C35.266 41.3381 35.0422 41.4754 34.8151 41.611C34.7964 41.6212 34.7778 41.633 34.7591 41.6432C34.5472 41.7687 34.332 41.8907 34.115 42.0094C34.0895 42.0229 34.0658 42.0365 34.0404 42.05C33.8115 42.1738 33.581 42.2958 33.3471 42.4128C33.3183 42.4281 33.2877 42.4416 33.2589 42.4569C33.0436 42.5637 32.8284 42.6671 32.6097 42.7688C32.5809 42.7824 32.5537 42.7942 32.5266 42.8078C32.291 42.9146 32.0537 43.018 31.8147 43.118C31.7757 43.1349 31.7367 43.1502 31.6977 43.1655C31.479 43.2553 31.2603 43.3418 31.0383 43.4248C31.0078 43.4367 30.9789 43.4486 30.9484 43.4587C30.7077 43.5486 30.4636 43.635 30.2195 43.7164C30.172 43.7316 30.1246 43.7469 30.0771 43.7639C29.855 43.8367 29.6313 43.9079 29.4058 43.9757C29.3753 43.9842 29.3465 43.9944 29.316 44.0029C29.0685 44.0758 28.8193 44.1436 28.5684 44.208C28.5142 44.2215 28.4616 44.2351 28.4074 44.2487C28.1768 44.3063 27.9463 44.3622 27.7141 44.4131C27.6869 44.4199 27.6598 44.4267 27.631 44.4317C27.3784 44.4877 27.1225 44.5368 26.8665 44.5843C26.8072 44.5945 26.7478 44.6063 26.6885 44.6165C26.4495 44.6589 26.2088 44.6979 25.9681 44.7335C25.946 44.7369 25.9223 44.7403 25.9002 44.7437C25.6409 44.7809 25.3798 44.8132 25.1188 44.842C25.0561 44.8488 24.9916 44.8555 24.9289 44.8623C24.6763 44.8894 24.4238 44.9115 24.1678 44.9301C24.1542 44.9318 24.1407 44.9318 24.1271 44.9335C23.861 44.9522 23.5948 44.9657 23.327 44.9776C23.2609 44.981 23.1948 44.9827 23.1287 44.9844C22.8591 44.9928 22.5879 44.9996 22.3167 44.9996C22.0438 44.9996 21.7742 44.9928 21.5047 44.9844C21.4386 44.9827 21.3725 44.9793 21.3064 44.9776C21.0385 44.9674 20.7707 44.9539 20.5063 44.9335C20.4927 44.9318 20.4791 44.9318 20.4656 44.9301C20.2113 44.9115 19.957 44.8877 19.7044 44.8623C19.6417 44.8555 19.5773 44.8488 19.5146 44.842C19.2518 44.8132 18.9908 44.7809 18.7331 44.7437C18.7094 44.7403 18.6874 44.7369 18.6653 44.7335C18.4229 44.6979 18.1839 44.6589 17.9432 44.6165C17.8839 44.6063 17.8245 44.5962 17.7669 44.5843C17.5109 44.5368 17.2549 44.486 17.0024 44.4317C16.9752 44.425 16.9464 44.4182 16.9193 44.4131C16.6871 44.3622 16.4565 44.3063 16.226 44.2487C16.1717 44.2351 16.1175 44.2215 16.0633 44.208C15.8124 44.1436 15.5632 44.0741 15.3157 44.0012C15.2852 43.9927 15.2564 43.9825 15.2258 43.9741C15.0004 43.9062 14.7749 43.8367 14.5529 43.7622C14.5054 43.7469 14.4579 43.7316 14.4122 43.7147C14.1664 43.6316 13.924 43.5469 13.6833 43.457C13.6527 43.4452 13.6239 43.435 13.5934 43.4231C13.3713 43.3401 13.1527 43.2536 12.934 43.1638C12.895 43.1485 12.856 43.1316 12.817 43.1163C12.578 43.0163 12.3407 42.9129 12.1051 42.8061C12.0762 42.7925 12.0491 42.7807 12.022 42.7671C11.8033 42.6671 11.5863 42.562 11.3728 42.4569C11.3439 42.4416 11.3134 42.4281 11.2846 42.4128C11.0507 42.2958 10.8201 42.1755 10.5913 42.05C10.5659 42.0365 10.5421 42.0229 10.5167 42.0094C10.2997 41.8907 10.0844 41.7687 9.87254 41.6432C9.85389 41.633 9.83525 41.6212 9.8166 41.611C9.58945 41.4754 9.36569 41.3381 9.14362 41.1957C9.12328 41.1821 9.10294 41.1686 9.0809 41.155C8.86392 41.016 8.65033 40.8736 8.44013 40.7278C8.43335 40.7227 8.42657 40.7193 8.41979 40.7143C8.19942 40.5617 7.98414 40.4057 7.77055 40.2464C7.75359 40.2345 7.73664 40.221 7.72139 40.2091C7.29421 39.8887 6.87889 39.5548 6.47714 39.2073C6.46358 39.1954 6.45171 39.1852 6.43815 39.1734C6.03301 38.8225 5.64312 38.458 5.2651 38.0817C5.25663 38.0732 5.24815 38.0647 5.23798 38.0546C5.02609 37.8427 4.82097 37.6257 4.61755 37.4053C8.58422 42.9349 15.0648 46.5405 22.3913 46.5405C30.0703 46.5405 36.8204 42.5806 40.721 36.5933C40.6498 36.6815 40.5786 36.7713 40.504 36.8561Z" fill="url(#paint18_linear_138_79884)"/>
<path opacity="0.25" d="M40.2734 19.1688V16.6074C40.2734 15.9887 39.7716 15.4869 39.1529 15.4869H33.3368C32.7181 15.4869 32.2163 15.9887 32.2163 16.6074V21.6861C33.8233 21.4658 36.4678 20.9623 40.2734 19.1688Z" fill="url(#paint19_linear_138_79884)"/>
<path opacity="0.25" d="M30.8535 28.7821V26.2207C30.8535 25.602 30.3517 25.1002 29.733 25.1002H23.9169C23.2982 25.1002 22.7964 25.602 22.7964 26.2207V31.2994C24.4034 31.0773 27.0478 30.5739 30.8535 28.7821Z" fill="url(#paint20_linear_138_79884)"/>
<path opacity="0.25" d="M21.4335 19.1688V16.6074C21.4335 15.9887 20.9317 15.4869 20.313 15.4869H14.4969C13.8782 15.4869 13.3764 15.9887 13.3764 16.6074V21.6861C14.9834 21.4658 17.6279 20.9623 21.4335 19.1688Z" fill="url(#paint21_linear_138_79884)"/>
<path opacity="0.25" d="M12.0135 28.7821V26.2207C12.0135 25.602 11.5117 25.1002 10.893 25.1002H5.07692C4.45819 25.1002 3.95642 25.602 3.95642 26.2207V31.2994C5.56343 31.0773 8.20618 30.5739 12.0135 28.7821Z" fill="url(#paint22_linear_138_79884)"/>
</g>
<defs>
<linearGradient id="paint0_linear_138_79884" x1="3.95664" y1="24.5858" x2="40.2736" y2="24.5858" gradientUnits="userSpaceOnUse">
<stop stop-color="#CC9401"/>
<stop offset="0.1904" stop-color="#CD9502"/>
<stop offset="0.2046" stop-color="#CA9603"/>
<stop offset="0.2162" stop-color="#C09807"/>
<stop offset="0.2269" stop-color="#AF9C0F"/>
<stop offset="0.2371" stop-color="#96A118"/>
<stop offset="0.2468" stop-color="#77A825"/>
<stop offset="0.2562" stop-color="#52B035"/>
<stop offset="0.2611" stop-color="#3BB53E"/>
<stop offset="0.4793" stop-color="#3BB93C"/>
<stop offset="0.4804" stop-color="#3FB43B"/>
<stop offset="0.5023" stop-color="#88622A"/>
<stop offset="0.5178" stop-color="#B62E1F"/>
<stop offset="0.5254" stop-color="#C81A1B"/>
<stop offset="0.7275" stop-color="#C81A1B"/>
<stop offset="0.7381" stop-color="#C9261A" stop-opacity="0.9975"/>
<stop offset="0.757" stop-color="#CB4417" stop-opacity="0.9931"/>
<stop offset="0.77" stop-color="#CD5D15" stop-opacity="0.99"/>
<stop offset="1" stop-color="#CC5D15"/>
</linearGradient>
<linearGradient id="paint1_linear_138_79884" x1="14.9258" y1="44.1928" x2="31.9507" y2="3.90399" gradientUnits="userSpaceOnUse">
<stop stop-color="#277DC6"/>
<stop offset="0.4761" stop-color="#3298D2"/>
<stop offset="1" stop-color="#3DB2DD"/>
</linearGradient>
<linearGradient id="paint2_linear_138_79884" x1="16.2621" y1="44.0997" x2="25.8933" y2="15.8674" gradientUnits="userSpaceOnUse">
<stop stop-color="#184FB4"/>
<stop offset="0.2136" stop-color="#1B58B7"/>
<stop offset="0.5575" stop-color="#226FC1"/>
<stop offset="0.9867" stop-color="#2F96D0"/>
<stop offset="1" stop-color="#2F97D1"/>
</linearGradient>
<linearGradient id="paint3_linear_138_79884" x1="3.95664" y1="24.2013" x2="40.2736" y2="24.2013" gradientUnits="userSpaceOnUse">
<stop stop-color="#FEBD01"/>
<stop offset="0.1645" stop-color="#FEBD01"/>
<stop offset="0.1904" stop-color="#FEBD01"/>
<stop offset="0.2034" stop-color="#FBBE02"/>
<stop offset="0.214" stop-color="#F1C007"/>
<stop offset="0.2238" stop-color="#E0C40E"/>
<stop offset="0.2331" stop-color="#C7C917"/>
<stop offset="0.2421" stop-color="#A8D024"/>
<stop offset="0.2508" stop-color="#82D934"/>
<stop offset="0.2591" stop-color="#56E246"/>
<stop offset="0.2611" stop-color="#4AE54B"/>
<stop offset="0.4793" stop-color="#4AE54B"/>
<stop offset="0.4879" stop-color="#6FBB42"/>
<stop offset="0.5062" stop-color="#B96931"/>
<stop offset="0.5191" stop-color="#E73526"/>
<stop offset="0.5254" stop-color="#F92122"/>
<stop offset="0.7275" stop-color="#F92122"/>
<stop offset="0.7355" stop-color="#FA2D1F"/>
<stop offset="0.7496" stop-color="#FB4B16"/>
<stop offset="0.7683" stop-color="#FE7D08"/>
<stop offset="0.7779" stop-color="#FF9900"/>
<stop offset="1" stop-color="#FE9900"/>
</linearGradient>
<linearGradient id="paint4_linear_138_79884" x1="63.1692" y1="16.7648" x2="63.1692" y2="40.4114" gradientUnits="userSpaceOnUse">
<stop stop-color="#2F98D2"/>
<stop offset="1" stop-color="#1B52AC"/>
</linearGradient>
<linearGradient id="paint5_linear_138_79884" x1="88.8345" y1="17.3415" x2="88.8345" y2="40.0269" gradientUnits="userSpaceOnUse">
<stop stop-color="#2F98D2"/>
<stop offset="1" stop-color="#1B52AC"/>
</linearGradient>
<linearGradient id="paint6_linear_138_79884" x1="111.039" y1="17.3415" x2="111.039" y2="40.0269" gradientUnits="userSpaceOnUse">
<stop stop-color="#2F98D2"/>
<stop offset="1" stop-color="#1B52AC"/>
</linearGradient>
<linearGradient id="paint7_linear_138_79884" x1="131.173" y1="16.957" x2="131.173" y2="40.1264" gradientUnits="userSpaceOnUse">
<stop stop-color="#2F98D2"/>
<stop offset="1" stop-color="#1B52AC"/>
</linearGradient>
<linearGradient id="paint8_linear_138_79884" x1="230.233" y1="17.1493" x2="230.233" y2="40.0269" gradientUnits="userSpaceOnUse">
<stop stop-color="#2F98D2"/>
<stop offset="1" stop-color="#1B52AC"/>
</linearGradient>
<linearGradient id="paint9_linear_138_79884" x1="154.237" y1="16.9571" x2="154.237" y2="40.2191" gradientUnits="userSpaceOnUse">
<stop stop-color="#2F98D2"/>
<stop offset="1" stop-color="#1B52AC"/>
</linearGradient>
<linearGradient id="paint10_linear_138_79884" x1="190.919" y1="17.1493" x2="190.919" y2="40.0269" gradientUnits="userSpaceOnUse">
<stop stop-color="#2F98D2"/>
<stop offset="1" stop-color="#1B52AC"/>
</linearGradient>
<linearGradient id="paint11_linear_138_79884" x1="175.192" y1="16.9571" x2="175.192" y2="40.2191" gradientUnits="userSpaceOnUse">
<stop stop-color="#2F98D2"/>
<stop offset="1" stop-color="#1B52AC"/>
</linearGradient>
<linearGradient id="paint12_linear_138_79884" x1="211.297" y1="0.0391557" x2="211.297" y2="49.2548" gradientUnits="userSpaceOnUse">
<stop stop-color="#FDE500"/>
<stop offset="0.2265" stop-color="#FDD300"/>
<stop offset="0.6792" stop-color="#FEA400"/>
<stop offset="1" stop-color="#FF7F00"/>
</linearGradient>
<linearGradient id="paint13_linear_138_79884" x1="207.644" y1="9.84385" x2="207.644" y2="18.1105" gradientUnits="userSpaceOnUse">
<stop stop-color="#FD4142"/>
<stop offset="0.5053" stop-color="#F82121"/>
<stop offset="1" stop-color="#F30505"/>
</linearGradient>
<linearGradient id="paint14_linear_138_79884" x1="207.644" y1="10.1454" x2="207.644" y2="15.0346" gradientUnits="userSpaceOnUse">
<stop stop-color="white"/>
<stop offset="1" stop-color="white" stop-opacity="0"/>
</linearGradient>
<linearGradient id="paint15_linear_138_79884" x1="11.0047" y1="25.8656" x2="14.4032" y2="22.4671" gradientUnits="userSpaceOnUse">
<stop offset="0.2234" stop-color="#FEBD01"/>
<stop offset="0.6441" stop-color="#84DA3A"/>
<stop offset="0.8346" stop-color="#52E652"/>
</linearGradient>
<linearGradient id="paint16_linear_138_79884" x1="29.6529" y1="26.0579" x2="33.0514" y2="22.6594" gradientUnits="userSpaceOnUse">
<stop offset="0.269" stop-color="#F92122"/>
<stop offset="0.5991" stop-color="#FC7B1C"/>
<stop offset="0.7665" stop-color="#FEA41A"/>
</linearGradient>
<linearGradient id="paint17_linear_138_79884" x1="20.4249" y1="22.4671" x2="23.8234" y2="25.8656" gradientUnits="userSpaceOnUse">
<stop offset="0.1697" stop-color="#4AE54B"/>
<stop offset="0.2702" stop-color="#60CC46"/>
<stop offset="0.4845" stop-color="#9A8B38"/>
<stop offset="0.7934" stop-color="#F62523"/>
<stop offset="0.8037" stop-color="#F92122"/>
</linearGradient>
<linearGradient id="paint18_linear_138_79884" x1="22.5045" y1="46.5469" x2="22.6837" y2="36.2795" gradientUnits="userSpaceOnUse">
<stop stop-color="#1544A0"/>
<stop offset="1" stop-color="#1745A3"/>
</linearGradient>
<linearGradient id="paint19_linear_138_79884" x1="36.2453" y1="21.6877" x2="36.2453" y2="15.489" gradientUnits="userSpaceOnUse">
<stop stop-color="white"/>
<stop offset="1" stop-color="white" stop-opacity="0"/>
</linearGradient>
<linearGradient id="paint20_linear_138_79884" x1="26.8252" y1="31.3002" x2="26.8252" y2="25.1014" gradientUnits="userSpaceOnUse">
<stop stop-color="white"/>
<stop offset="1" stop-color="white" stop-opacity="0"/>
</linearGradient>
<linearGradient id="paint21_linear_138_79884" x1="17.405" y1="21.6877" x2="17.405" y2="15.489" gradientUnits="userSpaceOnUse">
<stop stop-color="white"/>
<stop offset="1" stop-color="white" stop-opacity="0"/>
</linearGradient>
<linearGradient id="paint22_linear_138_79884" x1="7.98486" y1="31.3002" x2="7.98486" y2="25.1014" gradientUnits="userSpaceOnUse">
<stop stop-color="white"/>
<stop offset="1" stop-color="white" stop-opacity="0"/>
</linearGradient>
<clipPath id="clip0_138_79884">
<rect width="238" height="51.0242" fill="white" transform="translate(0.5)"/>
</clipPath>
</defs>
</svg>
